<?xml version="1.0" standalone="no"?>
<!DOCTYPE svg PUBLIC "-//W3C//DTD SVG 20010904//EN"
 "http://www.w3.org/TR/2001/REC-SVG-20010904/DTD/svg10.dtd">
<svg version="1.0" xmlns="http://www.w3.org/2000/svg"
 width="196.000000pt" height="82.000000pt" viewBox="0 0 196.000000 82.000000"
 preserveAspectRatio="xMidYMid meet">

<g transform="translate(0.000000,82.000000) scale(0.100000,-0.100000)"
fill="#000000" stroke="none">
<path d="M634 616 c-33 -15 -57 -55 -73 -126 -24 -105 -6 -150 60 -150 44 0
77 23 95 66 18 43 18 44 -9 44 -17 0 -26 -9 -35 -34 -13 -34 -42 -53 -62 -41
-22 14 1 165 31 201 20 24 54 13 57 -18 3 -22 9 -28 28 -28 21 0 24 5 24 34 0
58 -50 80 -116 52z"/>
<path d="M1911 594 c0 -11 3 -14 6 -6 3 7 2 16 -1 19 -3 4 -6 -2 -5 -13z"/>
<path d="M1112 428 c-13 -62 -26 -124 -29 -136 -5 -20 -2 -23 18 -20 18 2 25
12 32 40 8 34 11 37 29 27 56 -30 101 27 102 131 1 64 1 65 -27 68 -16 2 -35
-2 -43 -9 -10 -8 -14 -8 -14 0 0 6 -10 11 -23 11 -21 0 -24 -9 -45 -112z m114
67 c10 -24 -16 -115 -36 -125 -31 -16 -42 10 -30 66 6 26 16 54 22 61 14 17
37 16 44 -2z"/>
<path d="M1314 515 c-35 -35 -29 -65 19 -89 29 -14 37 -23 35 -40 -4 -30 -47
-35 -55 -7 -3 12 -13 21 -25 21 -15 0 -19 -6 -16 -27 8 -73 148 -42 148 32 0
19 -10 30 -41 45 -27 14 -39 27 -37 38 4 22 48 29 48 8 0 -9 8 -16 20 -16 14
0 20 7 20 24 0 44 -76 51 -116 11z"/>
<path d="M1483 525 c-22 -16 -53 -98 -53 -141 0 -60 73 -73 123 -22 29 29 30
33 12 36 -12 3 -25 -4 -33 -17 -8 -11 -23 -21 -33 -21 -15 0 -19 7 -19 35 l0
35 55 0 c53 0 55 1 56 28 2 44 -2 67 -15 74 -19 13 -71 9 -93 -7z m67 -40 c0
-21 -5 -25 -30 -25 -33 0 -35 3 -20 31 16 29 50 25 50 -6z"/>
<path d="M1617 473 c-32 -144 -32 -135 -6 -131 17 2 25 12 31 38 23 97 28 108
58 119 17 5 30 17 30 25 0 21 -19 20 -42 -1 -17 -15 -18 -15 -18 0 0 10 -8 17
-19 17 -16 0 -22 -13 -34 -67z"/>
<path d="M1745 528 c-2 -7 -13 -60 -25 -118 -12 -58 -24 -113 -26 -122 -4 -14
1 -18 19 -18 22 0 26 6 32 40 7 42 13 48 32 29 18 -18 61 -1 78 31 25 48 38
126 25 149 -12 23 -40 27 -71 11 -13 -7 -19 -7 -19 0 0 14 -40 13 -45 -2z m88
-71 c-1 -51 -26 -101 -46 -94 -35 11 -6 152 30 145 15 -3 18 -13 16 -51z"/>
<path d="M813 456 c-17 -26 -19 -35 -9 -39 8 -3 12 -16 9 -34 -4 -28 -4 -28
11 5 8 17 20 32 26 32 14 0 13 33 -2 53 -12 15 -15 13 -35 -17z"/>
<path d="M1007 476 c-24 -25 -40 -56 -28 -56 5 0 12 -15 14 -32 l4 -33 1 33
c2 25 6 32 22 32 21 0 23 8 11 49 -6 23 -7 23 -24 7z"/>
<path d="M851 363 c-1 -17 16 -25 25 -12 4 7 3 9 -4 5 -5 -3 -13 0 -15 6 -4 9
-6 10 -6 1z"/>
<path d="M1030 345 c-14 -8 -20 -14 -14 -15 5 0 19 7 30 15 24 18 16 19 -16 0z"/>
<path d="M1617 219 c4 -13 8 -18 11 -10 2 7 -1 18 -6 23 -8 8 -9 4 -5 -13z"/>
<path d="M1731 228 c1 -7 5 -24 9 -38 7 -22 8 -21 9 13 1 20 -3 37 -9 37 -5 0
-10 -6 -9 -12z"/>
<path d="M1766 231 c-4 -7 -5 -15 -2 -18 9 -9 19 4 14 18 -4 11 -6 11 -12 0z"/>
<path d="M1866 223 c-6 -14 -5 -15 5 -6 7 7 10 15 7 18 -3 3 -9 -2 -12 -12z"/>
<path d="M956 213 c-6 -14 -5 -15 5 -6 7 7 10 15 7 18 -3 3 -9 -2 -12 -12z"/>
<path d="M310 195 c0 -14 4 -25 9 -25 4 0 6 11 3 25 -2 14 -6 25 -8 25 -2 0
-4 -11 -4 -25z"/>
<path d="M873 205 c0 -8 4 -15 9 -15 4 0 8 4 8 9 0 6 -4 12 -8 15 -5 3 -9 -1
-9 -9z"/>
<path d="M1111 204 c0 -11 3 -14 6 -6 3 7 2 16 -1 19 -3 4 -6 -2 -5 -13z"/>
<path d="M1790 214 c0 -3 7 -12 15 -20 13 -13 15 -13 15 -1 0 8 -7 17 -15 21
-8 3 -15 3 -15 0z"/>
<path d="M342 190 c0 -14 2 -19 5 -12 2 6 2 18 0 25 -3 6 -5 1 -5 -13z"/>
<path d="M622 190 c0 -14 2 -19 5 -12 2 6 2 18 0 25 -3 6 -5 1 -5 -13z"/>
<path d="M1590 196 c0 -8 4 -17 9 -20 5 -4 7 3 4 14 -6 23 -13 26 -13 6z"/>
<path d="M1831 194 c0 -11 3 -14 6 -6 3 7 2 16 -1 19 -3 4 -6 -2 -5 -13z"/>
<path d="M720 190 c0 -5 5 -10 10 -10 6 0 10 5 10 10 0 6 -4 10 -10 10 -5 0
-10 -4 -10 -10z"/>
<path d="M1240 191 c0 -6 4 -13 10 -16 6 -3 7 1 4 9 -7 18 -14 21 -14 7z"/>
<path d="M1270 185 c0 -8 4 -15 10 -15 5 0 7 7 4 15 -4 8 -8 15 -10 15 -2 0
-4 -7 -4 -15z"/>
<path d="M945 180 c3 -5 8 -10 11 -10 2 0 4 5 4 10 0 6 -5 10 -11 10 -5 0 -7
-4 -4 -10z"/>
<path d="M1858 183 c7 -3 16 -2 19 1 4 3 -2 6 -13 5 -11 0 -14 -3 -6 -6z"/>
<path d="M260 120 c0 -11 5 -20 11 -20 5 0 7 5 3 11 -3 6 0 15 7 20 11 7 10 9
-3 9 -11 0 -18 -8 -18 -20z"/>
<path d="M358 133 c7 -3 16 -2 19 1 4 3 -2 6 -13 5 -11 0 -14 -3 -6 -6z"/>
<path d="M610 120 c0 -11 4 -20 10 -20 5 0 7 6 4 14 -3 8 2 16 13 19 14 4 14
5 -4 6 -17 1 -23 -5 -23 -19z"/>
<path d="M1068 133 c6 -2 18 -2 25 0 6 3 1 5 -13 5 -14 0 -19 -2 -12 -5z"/>
<path d="M1173 120 c-15 -24 -17 -40 -3 -40 5 0 7 7 4 15 -4 8 -1 15 5 15 6 0
11 -7 11 -16 0 -21 25 -12 26 10 2 14 1 14 -3 -1 -4 -14 -7 -12 -17 10 -11 27
-11 27 -23 7z"/>
<path d="M1242 123 c-10 -10 -10 -13 2 -13 8 0 18 -5 22 -12 4 -6 3 -8 -2 -5
-6 3 -16 2 -23 -2 -9 -6 -4 -8 13 -8 28 0 35 20 13 41 -10 11 -15 10 -25 -1z"/>
<path d="M1691 124 c0 -11 3 -14 6 -6 3 7 2 16 -1 19 -3 4 -6 -2 -5 -13z"/>
<path d="M1515 119 c-6 -8 -4 -10 4 -5 8 5 14 0 18 -15 6 -22 7 -22 14 -3 7
16 8 17 8 2 1 -10 5 -18 10 -18 5 0 7 9 4 21 -3 11 -11 18 -18 15 -7 -2 -17 0
-23 6 -6 6 -12 6 -17 -3z"/>
<path d="M293 105 c-3 -9 -3 -19 1 -22 3 -4 6 2 7 13 0 18 1 18 9 -1 8 -19 9
-19 9 3 1 25 -17 30 -26 7z"/>
<path d="M376 104 c-9 -8 -20 -12 -26 -9 -5 3 -10 2 -10 -4 0 -5 13 -9 28 -9
20 1 28 6 29 19 2 23 -1 23 -21 3z"/>
<path d="M417 113 c-4 -3 -7 -13 -6 -22 0 -12 3 -11 9 4 8 18 9 18 9 2 1 -10
5 -16 11 -12 5 3 7 12 3 20 -6 16 -16 19 -26 8z"/>
<path d="M456 103 c3 -12 15 -19 32 -20 15 -1 20 1 12 4 -8 3 -23 12 -32 20
-15 13 -16 13 -12 -4z"/>
<path d="M534 101 c0 -11 4 -17 8 -15 4 3 8 12 8 20 0 8 -4 14 -8 14 -4 0 -8
-9 -8 -19z"/>
<path d="M563 100 c1 -11 5 -20 9 -20 3 0 6 9 5 20 -1 11 -5 20 -9 20 -3 0 -6
-9 -5 -20z"/>
<path d="M640 110 c0 -3 5 -12 10 -20 8 -12 10 -12 11 5 l0 20 9 -20 c8 -19 9
-19 9 2 1 16 -4 21 -19 20 -11 -1 -20 -4 -20 -7z"/>
<path d="M693 100 c1 -11 5 -20 9 -20 4 0 8 9 8 20 0 11 -4 20 -9 20 -6 0 -9
-9 -8 -20z"/>
<path d="M725 112 c-3 -3 -5 -12 -4 -21 0 -12 3 -11 9 4 7 17 9 17 9 3 1 -13
8 -17 25 -16 14 1 22 6 20 10 -3 5 -10 6 -15 3 -5 -4 -9 -2 -9 4 0 5 6 11 13
14 6 2 0 4 -15 4 -15 0 -30 -2 -33 -5z"/>
<path d="M795 102 c3 -7 5 -16 5 -18 0 -2 5 -4 11 -4 5 0 7 5 4 10 -3 6 -2 10
4 10 5 0 11 -6 13 -12 3 -7 7 -3 10 8 4 17 0 20 -24 20 -20 0 -27 -4 -23 -14z"/>
<path d="M893 100 c1 -11 5 -20 9 -20 3 0 6 9 5 20 -1 11 -5 20 -9 20 -3 0 -6
-9 -5 -20z"/>
<path d="M1083 102 c-3 -7 -12 -11 -19 -8 -8 3 -14 1 -14 -4 0 -6 9 -10 20
-10 11 0 20 6 20 13 0 8 4 7 10 -3 8 -12 10 -12 11 5 l0 20 9 -20 c8 -19 9
-19 9 2 1 16 -4 21 -20 20 -12 -1 -24 -7 -26 -15z"/>
<path d="M1347 113 c-14 -14 -6 -32 13 -30 11 1 20 2 20 3 0 1 -3 9 -6 18 -7
17 -16 20 -27 9z"/>
<path d="M1388 98 c5 -21 6 -21 12 -2 7 19 7 19 12 -1 5 -18 6 -18 7 3 1 15
-5 22 -18 22 -15 0 -18 -5 -13 -22z"/>
<path d="M1463 100 c1 -11 5 -20 9 -20 3 0 6 9 5 20 -1 11 -5 20 -9 20 -3 0
-6 -9 -5 -20z"/>
<path d="M1580 110 c1 -17 20 -26 55 -27 22 0 34 2 28 4 -7 3 -13 11 -13 18 0
8 -12 12 -35 12 -19 -1 -35 -4 -35 -7z m40 -4 c0 -3 -4 -8 -10 -11 -5 -3 -10
-1 -10 4 0 6 5 11 10 11 6 0 10 -2 10 -4z"/>
<path d="M1660 109 c0 -5 5 -7 10 -4 6 3 10 8 10 11 0 2 -4 4 -10 4 -5 0 -10
-5 -10 -11z"/>
<path d="M1515 90 c-3 -5 -1 -10 4 -10 6 0 11 5 11 10 0 6 -2 10 -4 10 -3 0
-8 -4 -11 -10z"/>
<path d="M258 83 c7 -3 16 -2 19 1 4 3 -2 6 -13 5 -11 0 -14 -3 -6 -6z"/>
</g>
</svg>
